<svg width="20" height="20" viewBox="0 0 20 20" fill="none" xmlns="http://www.w3.org/2000/svg">
<circle cx="10" cy="10" r="10" fill="white"/>
<mask id="mask0" mask-type="alpha" maskUnits="userSpaceOnUse" x="4" y="4" width="12" height="12">
<rect x="4" y="4" width="12" height="12" fill="white"/>
</mask>
<g mask="url(#mask0)">
<path fill-rule="evenodd" clip-rule="evenodd" d="M12.6215 7.56452C12.7692 7.56411 12.9113 7.62188 13.0168 7.72535C13.1223 7.82881 13.1829 7.96966 13.1854 8.11743C13.1879 8.2652 13.1322 8.40803 13.0303 8.51503L10.0363 12.2575C9.9848 12.313 9.9227 12.3574 9.85366 12.3883C9.78462 12.4192 9.71006 12.4358 9.63445 12.4372C9.55883 12.4386 9.48371 12.4247 9.41358 12.3965C9.34344 12.3682 9.27973 12.326 9.22626 12.2725L7.24251 10.288C7.18724 10.2365 7.14292 10.1744 7.11217 10.1054C7.08143 10.0364 7.0649 9.96195 7.06356 9.88642C7.06223 9.81089 7.07613 9.73587 7.10442 9.66583C7.13271 9.59579 7.17482 9.53216 7.22823 9.47875C7.28164 9.42533 7.34527 9.38323 7.41531 9.35494C7.48535 9.32664 7.56037 9.31275 7.6359 9.31408C7.71143 9.31542 7.78591 9.33195 7.85491 9.36269C7.92391 9.39344 7.98601 9.43776 8.03751 9.49303L9.60801 11.0628L12.2128 7.74403C12.2174 7.73822 12.2224 7.73271 12.2278 7.72753H12.227C12.332 7.62348 12.4737 7.56492 12.6215 7.56452Z" fill="#402E46"/>
</g>
</svg>
