<svg width="35" height="35" viewBox="0 0 35 35" fill="none" xmlns="http://www.w3.org/2000/svg">
<g clip-path="url(#clip0)">
<path d="M10.3052 2.41394C9.95876 2.06755 9.40309 2.06755 9.0567 2.41394L3.47835 7.9562L1.50825 5.97167C1.16186 5.62528 0.606186 5.62528 0.259794 5.97167C-0.0865979 6.31806 -0.0865979 6.87373 0.259794 7.22012L2.85773 9.83249C3.03093 10.0057 3.25464 10.0923 3.48557 10.0923C3.70928 10.0923 3.93299 10.0057 4.10619 9.83249L10.3124 3.66239C10.6443 3.316 10.6515 2.76033 10.3052 2.41394Z" fill="white"/>
<path d="M5.28303 13.5274C3.09644 13.5274 1.31396 15.3099 1.31396 17.4965C1.31396 19.6831 3.09644 21.4656 5.28303 21.4656C7.46963 21.4656 9.2521 19.6831 9.2521 17.4965C9.24489 15.3099 7.46963 13.5274 5.28303 13.5274ZM5.28303 19.6975C4.07066 19.6975 3.082 18.7088 3.082 17.4965C3.082 16.2841 4.07066 15.2954 5.28303 15.2954C6.4954 15.2954 7.48406 16.2841 7.48406 17.4965C7.48406 18.7088 6.4954 19.6975 5.28303 19.6975Z" fill="white"/>
<path d="M5.28303 24.9078C3.09644 24.9078 1.31396 26.6903 1.31396 28.8769C1.31396 31.0634 3.09644 32.8459 5.28303 32.8459C7.46963 32.8459 9.2521 31.0634 9.2521 28.8769C9.24489 26.683 7.46963 24.9078 5.28303 24.9078ZM5.28303 31.0707C4.07066 31.0707 3.082 30.082 3.082 28.8696C3.082 27.6573 4.07066 26.6686 5.28303 26.6686C6.4954 26.6686 7.48406 27.6573 7.48406 28.8696C7.47685 30.0892 6.4954 31.0707 5.28303 31.0707Z" fill="white"/>
<path d="M34.1058 14.9201H13.6398C13.1491 14.9201 12.7522 15.317 12.7522 15.8077C12.7522 16.2985 13.1491 16.6954 13.6398 16.6954H34.1058C34.5965 16.6954 34.9934 16.2985 34.9934 15.8077C34.9934 15.317 34.5965 14.9201 34.1058 14.9201Z" fill="white"/>
<path d="M34.1058 18.3047H13.6398C13.1491 18.3047 12.7522 18.7016 12.7522 19.1923C12.7522 19.683 13.1491 20.0799 13.6398 20.0799H34.1058C34.5965 20.0799 34.9934 19.683 34.9934 19.1923C34.9934 18.7016 34.5965 18.3047 34.1058 18.3047Z" fill="white"/>
<path d="M13.6398 28.0613H34.1058C34.5965 28.0613 34.9934 27.6644 34.9934 27.1737C34.9934 26.683 34.5965 26.2861 34.1058 26.2861H13.6398C13.1491 26.2861 12.7522 26.683 12.7522 27.1737C12.7522 27.6644 13.1491 28.0613 13.6398 28.0613Z" fill="white"/>
<path d="M34.1058 31.4531C34.5965 31.4531 34.9934 31.0561 34.9934 30.5654C34.9934 30.0747 34.5965 29.6778 34.1058 29.6778H13.6398C13.1491 29.6778 12.7522 30.0747 12.7522 30.5654C12.7522 31.0561 13.1491 31.4531 13.6398 31.4531H34.1058Z" fill="white"/>
<path d="M12.7588 4.42733C12.7588 4.91805 13.1557 5.31496 13.6464 5.31496H34.1124C34.6031 5.31496 35 4.91805 35 4.42733C35 3.93661 34.6031 3.5397 34.1124 3.5397H13.6392C13.1485 3.5397 12.7588 3.93661 12.7588 4.42733Z" fill="white"/>
<path d="M34.1058 6.93146H13.6398C13.1491 6.93146 12.7522 7.32836 12.7522 7.81909C12.7522 8.30981 13.1491 8.70671 13.6398 8.70671H34.1058C34.5965 8.70671 34.9934 8.30981 34.9934 7.81909C34.9934 7.32836 34.5965 6.93146 34.1058 6.93146Z" fill="white"/>
</g>
<defs>
<clipPath id="clip0">
<rect width="35" height="35" fill="white"/>
</clipPath>
</defs>
</svg>
